<?xml version="1.0" encoding="iso-8859-1"?>
<!-- Generator: Adobe Illustrator 17.0.0, SVG Export Plug-In . SVG Version: 6.00 Build 0)  -->
<!DOCTYPE svg PUBLIC "-//W3C//DTD SVG 1.1//EN" "http://www.w3.org/Graphics/SVG/1.1/DTD/svg11.dtd">
<svg version="1.1" id="_x34_6_x5F_launch_x5F_optimization"
	 xmlns="http://www.w3.org/2000/svg" xmlns:xlink="http://www.w3.org/1999/xlink" x="0px" y="0px" width="64px" height="60px"
	 viewBox="0 0 64 60" style="enable-background:new 0 0 64 60;" xml:space="preserve">
<g>
	<g>
		<path style="fill:#222829;" d="M30,9h-2V6c0-0.552,0.447-1,1-1h2V2h-8v3h2c0.553,0,1,0.448,1,1v3h-2V7h-2c-0.553,0-1-0.448-1-1V1
			c0-0.552,0.447-1,1-1h10c0.553,0,1,0.448,1,1v5c0,0.552-0.447,1-1,1h-2V9z"/>
	</g>
	<g>
		<g>
			
				<rect x="5.379" y="13.5" transform="matrix(0.7071 0.7071 -0.7071 0.7071 12.4497 -1.0563)" style="fill:#222829;" width="4.243" height="2"/>
		</g>
		<g>
			<path style="fill:#222829;" d="M4,16c-0.256,0-0.512-0.098-0.707-0.293l-3-3c-0.391-0.391-0.391-1.023,0-1.414l4-4
				c0.391-0.391,1.023-0.391,1.414,0l3,3c0.391,0.391,0.391,1.023,0,1.414l-4,4C4.512,15.902,4.256,16,4,16z M2.414,12L4,13.586
				L6.586,11L5,9.414L2.414,12z"/>
		</g>
	</g>
	<g>
		<g>
			
				<rect x="45.5" y="12.379" transform="matrix(0.7071 0.7071 -0.7071 0.7071 23.8726 -28.6335)" style="fill:#222829;" width="2" height="4.243"/>
		</g>
		<g>
			<path style="fill:#222829;" d="M50,16c-0.256,0-0.512-0.098-0.707-0.293l-4-4c-0.391-0.391-0.391-1.023,0-1.414l3-3
				c0.391-0.391,1.023-0.391,1.414,0l4,4c0.391,0.391,0.391,1.023,0,1.414l-3,3C50.512,15.902,50.256,16,50,16z M47.414,11
				L50,13.586L51.586,12L49,9.414L47.414,11z"/>
		</g>
	</g>
	<g>
		<path style="fill:#222829;" d="M27,60C12.663,60,1,48.336,1,34S12.663,8,27,8c11.492,0,21.759,7.699,24.967,18.723l-1.92,0.559
			C47.085,17.106,37.608,10,27,10C13.767,10,3,20.767,3,34s10.767,24,24,24c10.608,0,20.085-7.105,23.047-17.278l1.92,0.559
			C48.759,52.302,38.491,60,27,60z"/>
	</g>
	<g>
		<g>
			<rect x="27" y="33" style="fill:#222829;" width="32" height="2"/>
		</g>
		<g>
			<path style="fill:#222829;" d="M63,39h-9c-0.266,0-0.52-0.105-0.707-0.293l-4-4c-0.391-0.391-0.391-1.023,0-1.414l4-4
				C53.48,29.105,53.734,29,54,29h9c0.404,0,0.77,0.244,0.924,0.617c0.155,0.374,0.069,0.804-0.217,1.09L60.414,34l3.293,3.293
				c0.286,0.286,0.372,0.716,0.217,1.09C63.77,38.756,63.404,39,63,39z M54.414,37h6.172l-2.293-2.293
				c-0.391-0.391-0.391-1.023,0-1.414L60.586,31h-6.172l-3,3L54.414,37z"/>
		</g>
	</g>
	<g>
		<path style="fill:#222829;" d="M27,56C14.869,56,5,46.131,5,34s9.869-22,22-22s22,9.869,22,22S39.131,56,27,56z M27,14
			C15.972,14,7,22.972,7,34s8.972,20,20,20s20-8.972,20-20S38.028,14,27,14z"/>
	</g>
	<g>
		<circle style="fill:#222829;" cx="27" cy="34" r="2"/>
	</g>
	<g>
		<path style="fill:#222829;" d="M27,37c-1.654,0-3-1.346-3-3s1.346-3,3-3s3,1.346,3,3S28.654,37,27,37z M27,33
			c-0.552,0-1,0.449-1,1s0.448,1,1,1s1-0.449,1-1S27.552,33,27,33z"/>
	</g>
	<g>
		<rect x="26" y="16" style="fill:#222829;" width="2" height="2"/>
	</g>
	<g>
		<rect x="26" y="50" style="fill:#222829;" width="2" height="2"/>
	</g>
	<g>
		<rect x="9" y="33" style="fill:#222829;" width="2" height="2"/>
	</g>
	<g>
		<rect x="38" y="21" style="fill:#222829;" width="2" height="2"/>
	</g>
	<g>
		<rect x="14" y="21" style="fill:#222829;" width="2" height="2"/>
	</g>
	<g>
		<rect x="38" y="45" style="fill:#222829;" width="2" height="2"/>
	</g>
	<g>
		<rect x="14" y="45" style="fill:#222829;" width="2" height="2"/>
	</g>
	<g>
		<rect x="54" y="41" style="fill:#222829;" width="2" height="2"/>
	</g>
	<g>
		<rect x="54" y="45" style="fill:#222829;" width="2" height="2"/>
	</g>
	<g>
		<rect x="54" y="21" style="fill:#222829;" width="2" height="2"/>
	</g>
	<g>
		<rect x="54" y="25" style="fill:#222829;" width="2" height="2"/>
	</g>
</g>
</svg>
